<?xml version="1.0" encoding="UTF-8" standalone="no"?>
<!DOCTYPE svg PUBLIC "-//W3C//DTD SVG 1.1//EN"
 "http://www.w3.org/Graphics/SVG/1.1/DTD/svg11.dtd">
<!-- Generated by graphviz version 2.40.1 (20161225.0304)
 -->
<!-- Title: dependencies Pages: 1 -->
<svg width="1177pt" height="284pt"
 viewBox="0.00 0.00 1177.00 284.00" xmlns="http://www.w3.org/2000/svg" xmlns:xlink="http://www.w3.org/1999/xlink">
<g id="graph0" class="graph" transform="scale(1 1) rotate(0) translate(4 280)">
<title>dependencies</title>
<polygon fill="#ffffff" stroke="transparent" points="-4,4 -4,-280 1173,-280 1173,4 -4,4"/>
<text text-anchor="start" x="563.5091" y="-42.4" font-family="sans-serif" font-weight="bold" font-size="14.00" fill="#000000">Legend</text>
<polygon fill="#ffffb3" stroke="transparent" points="350.5,-10 350.5,-30 370.5,-30 370.5,-10 350.5,-10"/>
<text text-anchor="start" x="374.129" y="-15.4" font-family="sans-serif" font-size="14.00" fill="#000000"> &#160;Declarations</text>
<polygon fill="#8dd3c7" stroke="transparent" points="463.5,-10 463.5,-30 483.5,-30 483.5,-10 463.5,-10"/>
<text text-anchor="start" x="487.2251" y="-15.4" font-family="sans-serif" font-size="14.00" fill="#000000"> &#160;Module</text>
<polygon fill="#80b1d3" stroke="transparent" points="549.5,-10 549.5,-30 569.5,-30 569.5,-10 549.5,-10"/>
<text text-anchor="start" x="573.2812" y="-15.4" font-family="sans-serif" font-size="14.00" fill="#000000"> &#160;Bootstrap</text>
<polygon fill="#fdb462" stroke="transparent" points="646.5,-10 646.5,-30 666.5,-30 666.5,-10 646.5,-10"/>
<text text-anchor="start" x="670.1732" y="-15.4" font-family="sans-serif" font-size="14.00" fill="#000000"> &#160;Providers</text>
<polygon fill="#fb8072" stroke="transparent" points="742.5,-10 742.5,-30 762.5,-30 762.5,-10 742.5,-10"/>
<text text-anchor="start" x="766.2258" y="-15.4" font-family="sans-serif" font-size="14.00" fill="#000000"> &#160;Exports</text>
<g id="clust1" class="cluster">
<title>cluster_AppModule</title>
<polygon fill="none" stroke="#000000" stroke-dasharray="1,5" points="8,-70 8,-268 1161,-268 1161,-70 8,-70"/>
</g>
<g id="clust2" class="cluster">
<title>cluster_AppModule_declarations</title>
<polygon fill="none" stroke="#000000" points="168,-78 168,-130 1153,-130 1153,-78 168,-78"/>
</g>
<g id="clust10" class="cluster">
<title>cluster_AppModule_imports</title>
<polygon fill="none" stroke="#000000" points="16,-78 16,-130 160,-130 160,-78 16,-78"/>
</g>
<g id="clust12" class="cluster">
<title>cluster_AppModule_bootstrap</title>
<polygon fill="none" stroke="#000000" points="550,-208 550,-260 674,-260 674,-208 550,-208"/>
</g>
<!-- AppComponent -->
<g id="node1" class="node">
<title>AppComponent</title>
<polygon fill="#ffffb3" stroke="#000000" points="1144.9399,-122 1039.0601,-122 1039.0601,-86 1144.9399,-86 1144.9399,-122"/>
<text text-anchor="middle" x="1092" y="-99.8" font-family="Times,serif" font-size="14.00" fill="#000000">AppComponent</text>
</g>
<!-- AppModule -->
<g id="node8" class="node">
<title>AppModule</title>
<polygon fill="#8dd3c7" stroke="#000000" points="653.6571,-187 650.6571,-191 629.6571,-191 626.6571,-187 570.3429,-187 570.3429,-151 653.6571,-151 653.6571,-187"/>
<text text-anchor="middle" x="612" y="-164.8" font-family="Times,serif" font-size="14.00" fill="#000000">AppModule</text>
</g>
<!-- AppComponent&#45;&gt;AppModule -->
<g id="edge1" class="edge">
<title>AppComponent&#45;&gt;AppModule</title>
<path fill="none" stroke="#000000" d="M1092,-122.2921C1092,-144.2057 1092,-178 1092,-178 1092,-178 663.7572,-178 663.7572,-178"/>
<polygon fill="#000000" stroke="#000000" points="663.7572,-174.5001 653.7572,-178 663.7571,-181.5001 663.7572,-174.5001"/>
</g>
<!-- FindUsComponent -->
<g id="node2" class="node">
<title>FindUsComponent</title>
<polygon fill="#ffffb3" stroke="#000000" points="1021.0576,-122 898.9424,-122 898.9424,-86 1021.0576,-86 1021.0576,-122"/>
<text text-anchor="middle" x="960" y="-99.8" font-family="Times,serif" font-size="14.00" fill="#000000">FindUsComponent</text>
</g>
<!-- FindUsComponent&#45;&gt;AppModule -->
<g id="edge2" class="edge">
<title>FindUsComponent&#45;&gt;AppModule</title>
<path fill="none" stroke="#000000" d="M960,-122.1061C960,-141.3391 960,-169 960,-169 960,-169 663.9769,-169 663.9769,-169"/>
<polygon fill="#000000" stroke="#000000" points="663.977,-165.5001 653.9769,-169 663.9769,-172.5001 663.977,-165.5001"/>
</g>
<!-- FooterComponent -->
<g id="node3" class="node">
<title>FooterComponent</title>
<polygon fill="#ffffb3" stroke="#000000" points="880.8809,-122 763.1191,-122 763.1191,-86 880.8809,-86 880.8809,-122"/>
<text text-anchor="middle" x="822" y="-99.8" font-family="Times,serif" font-size="14.00" fill="#000000">FooterComponent</text>
</g>
<!-- FooterComponent&#45;&gt;AppModule -->
<g id="edge3" class="edge">
<title>FooterComponent&#45;&gt;AppModule</title>
<path fill="none" stroke="#000000" d="M822,-122.027C822,-138.3976 822,-160 822,-160 822,-160 663.7403,-160 663.7403,-160"/>
<polygon fill="#000000" stroke="#000000" points="663.7404,-156.5001 653.7403,-160 663.7403,-163.5001 663.7404,-156.5001"/>
</g>
<!-- GallaryComponent -->
<g id="node4" class="node">
<title>GallaryComponent</title>
<polygon fill="#ffffb3" stroke="#000000" points="744.8104,-122 621.1896,-122 621.1896,-86 744.8104,-86 744.8104,-122"/>
<text text-anchor="middle" x="683" y="-99.8" font-family="Times,serif" font-size="14.00" fill="#000000">GallaryComponent</text>
</g>
<!-- GallaryComponent&#45;&gt;AppModule -->
<g id="edge4" class="edge">
<title>GallaryComponent&#45;&gt;AppModule</title>
<path fill="none" stroke="#000000" d="M637.5866,-122.1061C637.5866,-122.1061 637.5866,-140.991 637.5866,-140.991"/>
<polygon fill="#000000" stroke="#000000" points="634.0867,-140.9909 637.5866,-150.991 641.0867,-140.991 634.0867,-140.9909"/>
</g>
<!-- HeaderComponent -->
<g id="node5" class="node">
<title>HeaderComponent</title>
<polygon fill="#ffffb3" stroke="#000000" points="602.7437,-122 481.2563,-122 481.2563,-86 602.7437,-86 602.7437,-122"/>
<text text-anchor="middle" x="542" y="-99.8" font-family="Times,serif" font-size="14.00" fill="#000000">HeaderComponent</text>
</g>
<!-- HeaderComponent&#45;&gt;AppModule -->
<g id="edge5" class="edge">
<title>HeaderComponent&#45;&gt;AppModule</title>
<path fill="none" stroke="#000000" d="M586.5218,-122.1061C586.5218,-122.1061 586.5218,-140.991 586.5218,-140.991"/>
<polygon fill="#000000" stroke="#000000" points="583.0218,-140.9909 586.5218,-150.991 590.0218,-140.991 583.0218,-140.9909"/>
</g>
<!-- LandingPageComponent -->
<g id="node6" class="node">
<title>LandingPageComponent</title>
<polygon fill="#ffffb3" stroke="#000000" points="463.7021,-122 308.2979,-122 308.2979,-86 463.7021,-86 463.7021,-122"/>
<text text-anchor="middle" x="386" y="-99.8" font-family="Times,serif" font-size="14.00" fill="#000000">LandingPageComponent</text>
</g>
<!-- LandingPageComponent&#45;&gt;AppModule -->
<g id="edge6" class="edge">
<title>LandingPageComponent&#45;&gt;AppModule</title>
<path fill="none" stroke="#000000" d="M386,-122.027C386,-138.3976 386,-160 386,-160 386,-160 560.2847,-160 560.2847,-160"/>
<polygon fill="#000000" stroke="#000000" points="560.2848,-163.5001 570.2847,-160 560.2847,-156.5001 560.2848,-163.5001"/>
</g>
<!-- MenuComponent -->
<g id="node7" class="node">
<title>MenuComponent</title>
<polygon fill="#ffffb3" stroke="#000000" points="289.9916,-122 176.0084,-122 176.0084,-86 289.9916,-86 289.9916,-122"/>
<text text-anchor="middle" x="233" y="-99.8" font-family="Times,serif" font-size="14.00" fill="#000000">MenuComponent</text>
</g>
<!-- MenuComponent&#45;&gt;AppModule -->
<g id="edge7" class="edge">
<title>MenuComponent&#45;&gt;AppModule</title>
<path fill="none" stroke="#000000" d="M233,-122.1061C233,-141.3391 233,-169 233,-169 233,-169 559.9923,-169 559.9923,-169"/>
<polygon fill="#000000" stroke="#000000" points="559.9923,-172.5001 569.9923,-169 559.9923,-165.5001 559.9923,-172.5001"/>
</g>
<!-- AppComponent  -->
<g id="node10" class="node">
<title>AppComponent </title>
<polygon fill="#80b1d3" stroke="#000000" points="666.439,-252 557.561,-252 557.561,-216 666.439,-216 666.439,-252"/>
<text text-anchor="middle" x="612" y="-229.8" font-family="Times,serif" font-size="14.00" fill="#000000">AppComponent </text>
</g>
<!-- AppModule&#45;&gt;AppComponent  -->
<g id="edge9" class="edge">
<title>AppModule&#45;&gt;AppComponent </title>
<path fill="none" stroke="#000000" stroke-dasharray="1,5" d="M612,-187.1061C612,-187.1061 612,-205.991 612,-205.991"/>
<polygon fill="#000000" stroke="#000000" points="608.5001,-205.9909 612,-215.991 615.5001,-205.991 608.5001,-205.9909"/>
</g>
<!-- AppRoutingModule -->
<g id="node9" class="node">
<title>AppRoutingModule</title>
<polygon fill="#8dd3c7" stroke="#000000" points="152.2744,-122 149.2744,-126 128.2744,-126 125.2744,-122 23.7256,-122 23.7256,-86 152.2744,-86 152.2744,-122"/>
<text text-anchor="middle" x="88" y="-99.8" font-family="Times,serif" font-size="14.00" fill="#000000">AppRoutingModule</text>
</g>
<!-- AppRoutingModule&#45;&gt;AppModule -->
<g id="edge8" class="edge">
<title>AppRoutingModule&#45;&gt;AppModule</title>
<path fill="none" stroke="#000000" d="M88,-122.2921C88,-144.2057 88,-178 88,-178 88,-178 560.0047,-178 560.0047,-178"/>
<polygon fill="#000000" stroke="#000000" points="560.0047,-181.5001 570.0047,-178 560.0046,-174.5001 560.0047,-181.5001"/>
</g>
</g>
</svg>
